<svg width="1280" height="640" viewBox="0 0 1280 640" xmlns="http://www.w3.org/2000/svg">
  <defs>
    <!-- Vibrant gradient background -->
    <linearGradient id="bgGradient" x1="0%" y1="0%" x2="100%" y2="100%">
      <stop offset="0%" style="stop-color:#1a1b3a;stop-opacity:1" />
      <stop offset="100%" style="stop-color:#2d1b69;stop-opacity:1" />
    </linearGradient>
    
    <!-- Colorful accent gradient -->
    <linearGradient id="colorGradient" x1="0%" y1="0%" x2="100%" y2="0%">
      <stop offset="0%" style="stop-color:#00d4ff;stop-opacity:1" />
      <stop offset="25%" style="stop-color:#3a86ff;stop-opacity:1" />
      <stop offset="50%" style="stop-color:#8338ec;stop-opacity:1" />
      <stop offset="75%" style="stop-color:#ff006e;stop-opacity:1" />
      <stop offset="100%" style="stop-color:#fb5607;stop-opacity:1" />
    </linearGradient>
    
    <!-- Mesh gradient effect -->
    <radialGradient id="mesh1" cx="20%" cy="30%">
      <stop offset="0%" style="stop-color:#3a86ff;stop-opacity:0.3" />
      <stop offset="100%" style="stop-color:#3a86ff;stop-opacity:0" />
    </radialGradient>
    
    <radialGradient id="mesh2" cx="80%" cy="70%">
      <stop offset="0%" style="stop-color:#ff006e;stop-opacity:0.3" />
      <stop offset="100%" style="stop-color:#ff006e;stop-opacity:0" />
    </radialGradient>
    
    <!-- Blur filter -->
    <filter id="blur">
      <feGaussianBlur in="SourceGraphic" stdDeviation="20" />
    </filter>
    
    <!-- Glow filter -->
    <filter id="glow">
      <feGaussianBlur stdDeviation="3" result="coloredBlur"/>
      <feMerge>
        <feMergeNode in="coloredBlur"/>
        <feMergeNode in="SourceGraphic"/>
      </feMerge>
    </filter>
  </defs>
  
  <!-- Background -->
  <rect width="1280" height="640" fill="url(#bgGradient)"/>
  
  <!-- Mesh gradient overlays -->
  <circle cx="256" cy="192" r="300" fill="url(#mesh1)" filter="url(#blur)"/>
  <circle cx="1024" cy="448" r="300" fill="url(#mesh2)" filter="url(#blur)"/>
  
  <!-- Floating cache blocks animation -->
  <g opacity="0.1">
    <rect x="100" y="100" width="60" height="60" rx="8" fill="#ffffff" transform="rotate(15 130 130)"/>
    <rect x="1100" y="150" width="80" height="80" rx="8" fill="#ffffff" transform="rotate(-20 1140 190)"/>
    <rect x="200" y="450" width="70" height="70" rx="8" fill="#ffffff" transform="rotate(30 235 485)"/>
    <rect x="950" y="500" width="50" height="50" rx="8" fill="#ffffff" transform="rotate(-10 975 525)"/>
  </g>
  
  <!-- Central content container -->
  <g transform="translate(640, 320)">
    <!-- Project icon/logo -->
    <g transform="translate(-400, -80)">
      <!-- Stylized cache icon -->
      <g filter="url(#glow)">
        <rect x="0" y="0" width="120" height="90" rx="12" fill="none" stroke="url(#colorGradient)" stroke-width="3"/>
        <rect x="15" y="15" width="20" height="20" rx="4" fill="#00d4ff"/>
        <rect x="40" y="15" width="20" height="20" rx="4" fill="#3a86ff"/>
        <rect x="65" y="15" width="20" height="20" rx="4" fill="#8338ec"/>
        <rect x="90" y="15" width="20" height="20" rx="4" fill="#ff006e"/>
        
        <rect x="15" y="40" width="20" height="20" rx="4" fill="#3a86ff" opacity="0.7"/>
        <rect x="40" y="40" width="20" height="20" rx="4" fill="#8338ec" opacity="0.7"/>
        <rect x="65" y="40" width="20" height="20" rx="4" fill="#ff006e" opacity="0.7"/>
        <rect x="90" y="40" width="20" height="20" rx="4" fill="#fb5607" opacity="0.7"/>
        
        <text x="60" y="78" text-anchor="middle" fill="#ffffff" font-family="-apple-system, BlinkMacSystemFont, 'Segoe UI', Roboto, sans-serif" font-size="10" font-weight="600">CACHE</text>
      </g>
    </g>
    
    <!-- Main title -->
    <text x="-220" y="0" fill="#ffffff" font-family="-apple-system, BlinkMacSystemFont, 'Segoe UI', Roboto, sans-serif" font-size="96" font-weight="900" letter-spacing="-2">
      Cache Simulator
    </text>
    
    <!-- Colorful underline -->
    <rect x="-220" y="15" width="600" height="6" rx="3" fill="url(#colorGradient)"/>
    
    <!-- Subtitle -->
    <text x="-220" y="65" fill="#b8bffe" font-family="-apple-system, BlinkMacSystemFont, 'Segoe UI', Roboto, sans-serif" font-size="26" font-weight="500">
      Next-Generation Memory Hierarchy Simulator
    </text>
    
    <!-- Feature pills -->
    <g transform="translate(-220, 100)">
      <g>
        <rect x="0" y="0" width="140" height="40" rx="20" fill="#00d4ff" fill-opacity="0.2" stroke="#00d4ff" stroke-width="2"/>
        <text x="70" y="26" text-anchor="middle" fill="#00d4ff" font-family="-apple-system, BlinkMacSystemFont, 'Segoe UI', Roboto, sans-serif" font-size="16" font-weight="600">Multi-Level</text>
      </g>
      
      <g transform="translate(150, 0)">
        <rect x="0" y="0" width="140" height="40" rx="20" fill="#8338ec" fill-opacity="0.2" stroke="#8338ec" stroke-width="2"/>
        <text x="70" y="26" text-anchor="middle" fill="#8338ec" font-family="-apple-system, BlinkMacSystemFont, 'Segoe UI', Roboto, sans-serif" font-size="16" font-weight="600">Prefetching</text>
      </g>
      
      <g transform="translate(300, 0)">
        <rect x="0" y="0" width="140" height="40" rx="20" fill="#ff006e" fill-opacity="0.2" stroke="#ff006e" stroke-width="2"/>
        <text x="70" y="26" text-anchor="middle" fill="#ff006e" font-family="-apple-system, BlinkMacSystemFont, 'Segoe UI', Roboto, sans-serif" font-size="16" font-weight="600">MESI Protocol</text>
      </g>
      
      <g transform="translate(450, 0)">
        <rect x="0" y="0" width="100" height="40" rx="20" fill="#fb5607" fill-opacity="0.2" stroke="#fb5607" stroke-width="2"/>
        <text x="50" y="26" text-anchor="middle" fill="#fb5607" font-family="-apple-system, BlinkMacSystemFont, 'Segoe UI', Roboto, sans-serif" font-size="16" font-weight="600">C++17</text>
      </g>
    </g>
  </g>
  
  <!-- Version badge in top right -->
  <g transform="translate(1120, 60)">
    <rect x="0" y="0" width="100" height="40" rx="20" fill="#ffffff" fill-opacity="0.1" stroke="#ffffff" stroke-width="2"/>
    <text x="50" y="26" text-anchor="middle" fill="#ffffff" font-family="-apple-system, BlinkMacSystemFont, 'Segoe UI', Roboto, sans-serif" font-size="18" font-weight="700">v1.1.0</text>
  </g>
  
  <!-- Performance metrics visualization -->
  <g transform="translate(880, 180)" opacity="0.8">
    <text x="0" y="0" fill="#ffffff" font-family="-apple-system, BlinkMacSystemFont, 'Segoe UI', Roboto, sans-serif" font-size="14" font-weight="600">PERFORMANCE</text>
    
    <!-- Bar chart -->
    <rect x="0" y="20" width="200" height="8" rx="4" fill="#1a1b3a" fill-opacity="0.5"/>
    <rect x="0" y="20" width="180" height="8" rx="4" fill="#00d4ff"/>
    
    <rect x="0" y="40" width="200" height="8" rx="4" fill="#1a1b3a" fill-opacity="0.5"/>
    <rect x="0" y="40" width="160" height="8" rx="4" fill="#3a86ff"/>
    
    <rect x="0" y="60" width="200" height="8" rx="4" fill="#1a1b3a" fill-opacity="0.5"/>
    <rect x="0" y="60" width="190" height="8" rx="4" fill="#8338ec"/>
  </g>
  
  <!-- GitHub link -->
  <text x="640" y="600" text-anchor="middle" fill="#7c7fcc" font-family="-apple-system, BlinkMacSystemFont, 'Segoe UI', Roboto, sans-serif" font-size="16" font-weight="500">
    github.com/muditbhargava66/CacheSimulator
  </text>
</svg>