<svg width="1280" height="640" viewBox="0 0 1280 640" xmlns="http://www.w3.org/2000/svg">
  <defs>
    <!-- Modern gradient background -->
    <linearGradient id="backgroundGradient" x1="0%" y1="0%" x2="100%" y2="100%">
      <stop offset="0%" style="stop-color:#0a0a0b;stop-opacity:1" />
      <stop offset="50%" style="stop-color:#161618;stop-opacity:1" />
      <stop offset="100%" style="stop-color:#0a0a0b;stop-opacity:1" />
    </linearGradient>
    
    <!-- Accent gradient -->
    <linearGradient id="accentGradient" x1="0%" y1="0%" x2="100%" y2="0%">
      <stop offset="0%" style="stop-color:#3b82f6;stop-opacity:1" />
      <stop offset="50%" style="stop-color:#8b5cf6;stop-opacity:1" />
      <stop offset="100%" style="stop-color:#ec4899;stop-opacity:1" />
    </linearGradient>
    
    <!-- Glass effect -->
    <filter id="glass">
      <feGaussianBlur in="SourceGraphic" stdDeviation="1" result="blur" />
      <feComposite in="blur" in2="SourceGraphic" operator="over" />
    </filter>
    
    <!-- Text shadow -->
    <filter id="textShadow">
      <feDropShadow dx="0" dy="2" stdDeviation="4" flood-opacity="0.5"/>
    </filter>
    
    <!-- Glow effect -->
    <filter id="glow" x="-50%" y="-50%" width="200%" height="200%">
      <feGaussianBlur stdDeviation="10" result="coloredBlur"/>
      <feMerge>
        <feMergeNode in="coloredBlur"/>
        <feMergeNode in="SourceGraphic"/>
      </feMerge>
    </filter>
  </defs>
  
  <!-- Background -->
  <rect width="1280" height="640" fill="url(#backgroundGradient)"/>
  
  <!-- Subtle grid pattern -->
  <defs>
    <pattern id="grid" width="60" height="60" patternUnits="userSpaceOnUse">
      <line x1="0" y1="0" x2="0" y2="60" stroke="#ffffff" stroke-width="0.5" opacity="0.05"/>
      <line x1="0" y1="0" x2="60" y2="0" stroke="#ffffff" stroke-width="0.5" opacity="0.05"/>
    </pattern>
  </defs>
  <rect width="1280" height="640" fill="url(#grid)"/>
  
  <!-- Abstract cache visualization on the left -->
  <g transform="translate(100, 220)">
    <!-- Modern cache block representation -->
    <g opacity="0.9">
      <!-- L1 Cache representation -->
      <rect x="0" y="0" width="200" height="60" rx="8" fill="none" stroke="url(#accentGradient)" stroke-width="2" opacity="0.8"/>
      <rect x="10" y="10" width="40" height="40" rx="4" fill="#3b82f6" opacity="0.6"/>
      <rect x="55" y="10" width="40" height="40" rx="4" fill="#3b82f6" opacity="0.5"/>
      <rect x="100" y="10" width="40" height="40" rx="4" fill="#3b82f6" opacity="0.4"/>
      <rect x="145" y="10" width="40" height="40" rx="4" fill="#3b82f6" opacity="0.3"/>
      
      <!-- L2 Cache representation -->
      <g transform="translate(40, 80)">
        <rect x="0" y="0" width="240" height="70" rx="8" fill="none" stroke="url(#accentGradient)" stroke-width="2" opacity="0.6"/>
        <rect x="10" y="10" width="50" height="50" rx="4" fill="#8b5cf6" opacity="0.5"/>
        <rect x="65" y="10" width="50" height="50" rx="4" fill="#8b5cf6" opacity="0.4"/>
        <rect x="120" y="10" width="50" height="50" rx="4" fill="#8b5cf6" opacity="0.3"/>
        <rect x="175" y="10" width="50" height="50" rx="4" fill="#8b5cf6" opacity="0.2"/>
      </g>
      
      <!-- Memory representation -->
      <g transform="translate(80, 170)">
        <rect x="0" y="0" width="280" height="80" rx="8" fill="none" stroke="url(#accentGradient)" stroke-width="2" opacity="0.4"/>
        <rect x="10" y="10" width="60" height="60" rx="4" fill="#ec4899" opacity="0.4"/>
        <rect x="75" y="10" width="60" height="60" rx="4" fill="#ec4899" opacity="0.3"/>
        <rect x="140" y="10" width="60" height="60" rx="4" fill="#ec4899" opacity="0.2"/>
        <rect x="205" y="10" width="60" height="60" rx="4" fill="#ec4899" opacity="0.1"/>
      </g>
    </g>
    
    <!-- Connection lines -->
    <line x1="100" y1="60" x2="140" y2="80" stroke="url(#accentGradient)" stroke-width="1" opacity="0.5"/>
    <line x1="160" y1="150" x2="200" y2="170" stroke="url(#accentGradient)" stroke-width="1" opacity="0.5"/>
  </g>
  
  <!-- Main content -->
  <g transform="translate(640, 280)">
    <!-- Title with modern typography -->
    <text x="-100" y="0" fill="#ffffff" font-family="-apple-system, BlinkMacSystemFont, 'Segoe UI', Roboto, sans-serif" font-size="84" font-weight="800" filter="url(#textShadow)">
      Cache Simulator
    </text>
    
    <!-- Animated accent line -->
    <rect x="-70" y="20" width="600" height="4" rx="2" fill="url(#accentGradient)" filter="url(#glow)"/>
    
    <!-- Tagline -->
    <text x="-30" y="70" fill="#a1a1aa" font-family="-apple-system, BlinkMacSystemFont, 'Segoe UI', Roboto, sans-serif" font-size="28" font-weight="400">
      Advanced Memory Hierarchy Analysis Tool
    </text>
  </g>
  
  <!-- Version and features -->
  <g transform="translate(640, 440)">
    
    <!-- Key features with icons -->
    <g transform="translate(120, 0)" fill="#71717a" font-family="-apple-system, BlinkMacSystemFont, 'Segoe UI', Roboto, sans-serif" font-size="16">
      <text x="-90" y="10">✓ Multi-level Cache</text>
      <text x="90" y="10">✓ MESI Protocol</text>
      <text x="260" y="10">✓ C++17</text>
      <text x="-90" y="35">✓ Prefetching</text>
      <text x="90" y="35">✓ Open Source</text>
      <text x="260" y="35">✓ Fast</text>
    </g>
  </g>
  
  <!-- Decorative elements -->
  <g opacity="0.3">
    <!-- Top right decoration -->
    <circle cx="1150" cy="100" r="80" fill="none" stroke="url(#accentGradient)" stroke-width="1"/>
    <circle cx="1150" cy="100" r="60" fill="none" stroke="url(#accentGradient)" stroke-width="1" opacity="0.5"/>
    <circle cx="1150" cy="100" r="40" fill="none" stroke="url(#accentGradient)" stroke-width="1" opacity="0.3"/>
    
    <!-- Bottom left decoration -->
    <rect x="50" y="500" width="80" height="80" rx="8" fill="none" stroke="url(#accentGradient)" stroke-width="1" transform="rotate(45 90 540)"/>
  </g>
  
  <!-- Subtle branding -->
  <text x="640" y="580" text-anchor="middle" fill="#52525b" font-family="-apple-system, BlinkMacSystemFont, 'Segoe UI', Roboto, sans-serif" font-size="14" font-weight="400">
    github.com/muditbhargava66/CacheSimulator
  </text>
</svg>